<?xml version="1.0" encoding="utf-8"?>
<!-- Generator: Adobe Illustrator 16.0.0, SVG Export Plug-In . SVG Version: 6.00 Build 0)  -->
<!DOCTYPE svg PUBLIC "-//W3C//DTD SVG 1.1//EN" "http://www.w3.org/Graphics/SVG/1.1/DTD/svg11.dtd">
<svg version="1.1" id="Layer_1" xmlns="http://www.w3.org/2000/svg" xmlns:xlink="http://www.w3.org/1999/xlink" x="0px" y="0px"
	 width="388.35px" height="272.129px" viewBox="0 0 388.35 272.129" enable-background="new 0 0 388.35 272.129"
	 xml:space="preserve">
<g>
	<path fill-rule="evenodd" clip-rule="evenodd" fill="#FFFFFF" d="M100.09,121.437c-0.75-0.237-1.493-0.496-2.25-0.708
		c-2.237-0.63-4.387-0.313-6.47,0.649c-0.092,0.042-0.177,0.097-0.263,0.15c-1.056,0.629-1.21,1.471-0.428,2.409
		c0.819,0.984,1.934,1.545,3.074,2.045c1.858,0.818,3.801,1.403,5.821,1.652c1.258,0.155,2.537,0.276,3.792-0.065
		c0.803-0.217,1.009-0.556,0.938-1.389c0.462,0.614,0.942,1.218,1.385,1.845c1.705,2.403,3.163,4.931,3.984,7.785
		c0.368,1.289,0.563,2.597,0.488,3.934c-0.19,3.522-2.043,5.963-5.04,7.619c-0.741,0.41-1.539,0.725-2.329,1.031
		c-0.869,0.343-1.79,0.304-2.701,0.256c-0.837-0.042-1.68-0.088-2.518-0.146c-1.603-0.11-3.206-0.226-4.809-0.341
		c-1.225-0.088-2.454-0.169-3.676-0.272c-1.137-0.098-2.271-0.229-3.408-0.337c-1.064-0.098-2.129-0.174-3.193-0.272
		c-1.082-0.1-2.159-0.218-3.235-0.321c-0.674-0.069-1.352-0.131-2.025-0.201c-1.106-0.111-2.208-0.23-3.314-0.336
		c-0.994-0.098-1.986-0.176-2.978-0.275c-1.002-0.1-2.005-0.223-3.01-0.33c-0.933-0.098-1.867-0.184-2.802-0.279
		c-1.017-0.107-2.036-0.225-3.054-0.334c-0.903-0.096-1.81-0.182-2.714-0.277c-1.02-0.109-2.035-0.229-3.055-0.334
		c-0.917-0.098-1.835-0.18-2.753-0.277c-0.963-0.104-1.921-0.223-2.883-0.326c-0.902-0.1-1.809-0.186-2.713-0.283
		c-0.958-0.105-1.918-0.225-2.878-0.33c-0.891-0.1-1.781-0.184-2.67-0.281c-1.219-0.136-2.439-0.277-3.656-0.416
		c-0.863-0.096-1.726-0.184-2.584-0.283c-1.235-0.138-2.468-0.287-3.701-0.422c-0.904-0.1-1.807-0.174-2.711-0.275
		c-1.159-0.133-2.315-0.29-3.477-0.422c-1.146-0.131-2.294-0.235-3.441-0.364c-1.147-0.128-2.293-0.272-3.438-0.408
		c-0.848-0.1-1.693-0.189-2.54-0.289c-0.513-0.058-1.025-0.121-1.674-0.197c0.267-0.113,0.415-0.187,0.571-0.238
		c5.489-1.891,10.974-3.788,16.466-5.663c4.161-1.419,8.331-2.814,12.497-4.209c6.964-2.331,13.926-4.667,20.896-6.979
		c4.481-1.486,8.965-2.975,13.473-4.375c1.393-0.432,2.863-0.647,4.312-0.831c1.576-0.2,3.173-0.356,4.759-0.34
		c3.396,0.034,6.672,0.69,9.652,2.42c0.805,0.47,1.562,1.026,2.34,1.542C100.127,121.376,100.111,121.407,100.09,121.437z
		 M85.951,118.839c-0.894,0-1.843-0.064-2.772,0.015c-1.157,0.099-2.343,0.188-3.449,0.506c-2.979,0.856-5.938,1.799-8.883,2.764
		c-6.782,2.22-13.561,4.457-20.328,6.715c-9.527,3.173-19.043,6.37-28.563,9.56c-1.11,0.369-2.214,0.755-3.321,1.132
		c0.094,0.075,0.173,0.075,0.254,0.075c5.67,0.028,11.34,0.058,17.008,0.088c4.636,0.027,9.273,0.056,13.913,0.086
		c4.375,0.029,8.75,0.058,13.123,0.087c4.304,0.03,8.604,0.06,12.908,0.088c4.535,0.03,9.07,0.069,13.606,0.084
		c4.462,0.016,8.926,0.012,13.392-0.011c0.446,0,0.909-0.145,1.329-0.312c0.558-0.229,0.748-0.687,0.588-1.271
		c-0.077-0.288-0.198-0.571-0.352-0.828c-0.482-0.795-1.153-1.415-1.925-1.918c-2.154-1.408-4.312-2.815-6.487-4.189
		c-2.458-1.549-4.942-3.058-7.406-4.594c-1.456-0.905-2.891-1.841-3.963-3.216c-1.256-1.603-1.16-3.06,0.423-4.283
		C85.348,119.184,85.689,119.005,85.951,118.839z"/>
	<path fill-rule="evenodd" clip-rule="evenodd" fill="#F89D30" d="M297.588,138.185c0-5.837,0-11.675,0-17.559
		c0.514,0,0.987,0,1.466,0c1.048,0,2.093,0.019,3.139-0.01c0.414-0.012,0.504,0.128,0.504,0.516
		c-0.013,5.656-0.008,11.311-0.008,16.967c0,2.966,0,5.933,0,8.898c0,0.171,0,0.341,0,0.571c-0.309,0-0.562,0-0.821,0
		c-1.219,0-2.441-0.01-3.664,0.008c-0.297,0.004-0.464-0.096-0.629-0.346c-3.599-5.606-7.208-11.21-10.812-16.814
		c-0.075-0.12-0.159-0.236-0.318-0.467c0,5.934,0,11.745,0,17.584c-1.719,0-3.382,0-5.072,0c0-8.956,0-17.905,0-26.879
		c0.119-0.01,0.233-0.028,0.347-0.028c1.382-0.001,2.764-0.01,4.145,0.012c0.177,0.003,0.418,0.132,0.514,0.279
		c2.897,4.488,5.779,8.986,8.665,13.481c0.82,1.27,1.637,2.538,2.453,3.807C297.525,138.199,297.556,138.191,297.588,138.185z"/>
	<path fill-rule="evenodd" clip-rule="evenodd" fill="#FFFFFF" d="M131.711,136.234c0,3.773,0,7.547,0,11.353
		c-1.718,0-3.397,0-5.108,0c0-8.976,0-17.955,0-26.961c0.08-0.01,0.176-0.036,0.272-0.036c1.99,0,3.984-0.037,5.974,0.021
		c1.458,0.041,2.913,0.117,4.343,0.471c1.901,0.471,3.278,1.584,4.209,3.278c0.827,1.511,1.097,3.125,0.976,4.844
		c-0.098,1.39-0.448,2.667-1.276,3.793c-0.857,1.167-2.029,1.924-3.335,2.488c-0.121,0.052-0.243,0.092-0.382,0.145
		c2.092,3.971,4.177,7.928,6.292,11.946c-0.158,0.019-0.279,0.04-0.399,0.042c-1.612,0.002-3.227-0.006-4.84,0.006
		c-0.249,0.002-0.389-0.075-0.508-0.298c-1.888-3.623-3.78-7.243-5.687-10.856c-0.077-0.144-0.272-0.226-0.409-0.336
		C131.793,136.167,131.752,136.201,131.711,136.234z M131.738,131.22c1.256-0.096,2.482-0.142,3.694-0.299
		c0.856-0.111,1.635-0.478,1.893-1.421c0.11-0.395,0.137-0.821,0.142-1.234c0.02-1.094-0.682-2.091-1.749-2.341
		c-0.768-0.179-1.57-0.213-2.361-0.272c-0.528-0.039-1.064-0.006-1.619-0.006C131.738,127.481,131.738,129.278,131.738,131.22z"/>
	<path fill-rule="evenodd" clip-rule="evenodd" fill="#FFFFFF" d="M187.313,127.609c0.153-0.012,0.264-0.031,0.375-0.031
		c1.366-0.002,2.732,0.004,4.101-0.007c0.268-0.001,0.401,0.065,0.499,0.344c1.203,3.474,2.426,6.941,3.645,10.411
		c0.046,0.132,0.108,0.263,0.204,0.5c0.332-0.881,0.631-1.667,0.932-2.456c1.063-2.81,2.131-5.617,3.188-8.434
		c0.102-0.274,0.234-0.376,0.535-0.367c0.726,0.023,1.454,0.024,2.179-0.001c0.317-0.012,0.446,0.102,0.552,0.394
		c1.305,3.519,2.623,7.033,3.941,10.545c0.014,0.039,0.05,0.069,0.107,0.143c0.431-1.196,0.851-2.357,1.259-3.521
		c0.858-2.412,1.705-4.824,2.567-7.231c0.046-0.129,0.219-0.305,0.338-0.307c1.536-0.021,3.073-0.014,4.69-0.014
		c-0.191,0.551-0.358,1.048-0.536,1.542c-2.181,6.055-4.367,12.114-6.544,18.17c-0.09,0.236-0.197,0.343-0.47,0.336
		c-0.831-0.02-1.655-0.016-2.485-0.002c-0.245,0.004-0.354-0.083-0.438-0.312c-1.296-3.533-2.606-7.062-3.911-10.593
		c-0.04-0.107-0.078-0.216-0.149-0.408c-0.197,0.485-0.374,0.902-0.533,1.324c-1.205,3.173-2.412,6.347-3.607,9.523
		c-0.119,0.325-0.265,0.49-0.65,0.472c-0.768-0.035-1.542-0.02-2.312-0.006c-0.24,0.004-0.354-0.073-0.44-0.309
		c-1.268-3.557-2.547-7.113-3.821-10.671c-1.011-2.812-2.017-5.627-3.019-8.44C187.442,128.019,187.386,127.833,187.313,127.609z"/>
	<path fill-rule="evenodd" clip-rule="evenodd" fill="#F89D30" d="M344.357,136.241c-0.471,1.218-0.9,2.321-1.325,3.426
		c-0.964,2.502-1.932,5.001-2.879,7.511c-0.116,0.316-0.275,0.408-0.6,0.399c-0.769-0.023-1.538-0.018-2.309-0.002
		c-0.261,0.006-0.382-0.087-0.468-0.332c-2.269-6.389-4.541-12.772-6.812-19.159c-0.044-0.122-0.074-0.247-0.128-0.424
		c0.169-0.011,0.307-0.03,0.444-0.03c1.292-0.002,2.587,0.013,3.879-0.01c0.367-0.008,0.532,0.114,0.649,0.454
		c1.186,3.42,2.39,6.837,3.589,10.251c0.056,0.161,0.115,0.318,0.215,0.575c0.54-1.43,1.046-2.75,1.548-4.072
		c0.86-2.276,1.725-4.55,2.575-6.831c0.104-0.275,0.227-0.386,0.529-0.376c0.725,0.023,1.452,0.024,2.179,0
		c0.318-0.012,0.446,0.109,0.556,0.396c1.272,3.434,2.562,6.863,3.85,10.292c0.042,0.119,0.1,0.232,0.195,0.441
		c0.362-1.027,0.697-1.971,1.035-2.913c0.924-2.609,1.858-5.214,2.772-7.827c0.102-0.293,0.237-0.395,0.55-0.391
		c1.342,0.017,2.675,0.007,4.017,0.009c0.126,0,0.253,0.012,0.44,0.021c-0.317,0.895-0.617,1.752-0.925,2.608
		c-2.029,5.628-4.068,11.255-6.084,16.885c-0.119,0.334-0.265,0.448-0.617,0.436c-0.755-0.029-1.514-0.025-2.268-0.002
		c-0.312,0.009-0.454-0.096-0.562-0.392c-1.282-3.51-2.581-7.015-3.877-10.52C344.488,136.556,344.44,136.453,344.357,136.241z"/>
	<path fill-rule="evenodd" clip-rule="evenodd" fill="#FFFFFF" d="M161.742,129.697c0-0.654,0.005-1.216,0-1.777
		c-0.004-0.193,0.013-0.344,0.27-0.344c1.569,0.005,3.136,0.003,4.741,0.003c0,6.675,0,13.321,0,20.009
		c-0.125,0.01-0.249,0.031-0.374,0.031c-1.396,0.002-2.793-0.012-4.188,0.01c-0.376,0.005-0.474-0.127-0.458-0.478
		c0.028-0.492,0.009-0.985,0.009-1.571c-0.361,0.293-0.665,0.548-0.973,0.789c-1.764,1.372-3.793,1.93-5.974,1.675
		c-3.417-0.398-5.794-2.36-7.356-5.338c-0.95-1.806-1.177-3.77-1.08-5.798c0.088-1.835,0.489-3.569,1.416-5.153
		c1.325-2.254,3.175-3.885,5.78-4.432c3.005-0.629,5.704,0.042,7.974,2.185C161.572,129.546,161.618,129.585,161.742,129.697z
		 M162.059,137.545c-0.098-0.624-0.133-1.267-0.308-1.872c-0.636-2.211-2.104-3.516-4.398-3.843
		c-2.173-0.31-3.882,0.469-5.112,2.276c-0.952,1.394-1.129,2.984-0.847,4.575c0.458,2.593,1.928,4.327,4.652,4.71
		c1.418,0.201,2.729-0.155,3.863-1.052C161.448,141.119,161.984,139.452,162.059,137.545z"/>
	<path fill-rule="evenodd" clip-rule="evenodd" fill="#FFFFFF" d="M233.715,147.593c0-0.686,0-1.32,0-2.023
		c-0.429,0.339-0.801,0.649-1.189,0.938c-2.959,2.207-7.187,2.054-10.089-0.161c-2.15-1.641-3.538-3.777-3.967-6.444
		c-0.525-3.226-0.125-6.313,1.844-9.038c1.444-2.001,3.349-3.314,5.852-3.651c2.863-0.388,5.339,0.376,7.416,2.4
		c0.016,0.019,0.044,0.023,0.13,0.058c0-0.596,0.004-1.169,0-1.739c0-0.183-0.013-0.355,0.251-0.354
		c1.555,0.004,3.106,0.002,4.691,0.002c0,6.688,0,13.337,0,20.015C237.019,147.593,235.398,147.593,233.715,147.593z M223.19,137.55
		c0.072,0.501,0.138,1.001,0.224,1.495c0.418,2.402,2.777,4.813,5.931,4.33c1.732-0.266,3.013-1.122,3.85-2.625
		c0.822-1.476,0.909-3.069,0.606-4.703c-0.669-3.617-4.642-5.293-7.673-3.714C224.058,133.411,223.28,135.294,223.19,137.55z"/>
	<path fill-rule="evenodd" clip-rule="evenodd" fill="#F89D30" d="M327.916,139.061c-5.243,0-10.497,0-15.798,0
		c0.151,1.084,0.569,1.988,1.236,2.778c1.225,1.437,2.838,1.886,4.643,1.828c1.645-0.052,3.076-0.643,4.305-1.74
		c0.094-0.084,0.325-0.111,0.448-0.056c1.283,0.596,2.56,1.217,3.882,1.85c-0.49,0.783-1.092,1.438-1.774,2.02
		c-1.734,1.468-3.768,2.177-6.017,2.326c-1.972,0.13-3.897-0.021-5.703-0.87c-3.146-1.478-5.078-3.936-5.688-7.366
		c-0.429-2.384-0.231-4.729,0.84-6.926c1.592-3.25,4.133-5.258,7.787-5.688c2.455-0.287,4.817,0.039,6.964,1.343
		c2.518,1.531,4.066,3.778,4.61,6.662c0.223,1.204,0.227,2.452,0.326,3.678C327.981,138.936,327.95,138.976,327.916,139.061z
		 M312.395,135.069c3.543,0,7.048,0,10.555,0c-0.217-1.731-2.376-3.464-4.542-3.667
		C315.629,131.141,313.251,132.571,312.395,135.069z"/>
	<path fill-rule="evenodd" clip-rule="evenodd" fill="#FFFFFF" d="M244.865,154.87c0.391-0.852,0.745-1.619,1.099-2.388
		c0.956-2.051,1.912-4.097,2.851-6.155c0.073-0.157,0.056-0.402-0.015-0.567c-2.357-5.842-4.733-11.677-7.102-17.515
		c-0.083-0.195-0.149-0.395-0.242-0.64c0.179-0.01,0.314-0.026,0.453-0.026c1.395-0.002,2.789,0.012,4.185-0.01
		c0.331-0.004,0.494,0.103,0.613,0.397c1.016,2.506,2.039,5.009,3.062,7.512c0.619,1.501,1.242,3,1.888,4.56
		c0.444-0.973,0.86-1.902,1.286-2.834c1.378-3.04,2.767-6.077,4.131-9.125c0.173-0.389,0.38-0.521,0.812-0.513
		c1.493,0.031,2.991,0.012,4.564,0.012c-0.235,0.54-0.448,1.035-0.672,1.526c-1.955,4.3-3.909,8.6-5.864,12.9
		c-1.898,4.173-3.796,8.347-5.704,12.519c-0.063,0.142-0.242,0.331-0.372,0.331C248.213,154.879,246.588,154.87,244.865,154.87z"/>
	<path fill-rule="evenodd" clip-rule="evenodd" fill="#F89D30" d="M373.744,130.456c-1.051,1.003-2.089,1.997-3.136,2.995
		c-0.404-0.322-0.849-0.718-1.329-1.054c-0.763-0.527-1.599-0.833-2.545-0.647c-0.211,0.041-0.426,0.107-0.613,0.211
		c-0.782,0.436-0.874,1.308-0.161,1.853c0.388,0.295,0.844,0.505,1.276,0.739c1.311,0.711,2.665,1.352,3.929,2.14
		c1.536,0.957,2.575,2.314,2.849,4.173c0.466,3.112-1.155,5.845-4.175,6.765c-2.861,0.873-5.611,0.576-8.06-1.258
		c-0.619-0.464-1.133-1.073-1.719-1.638c1.063-1.173,2.063-2.276,3.083-3.396c0.747,0.817,1.571,1.47,2.56,1.902
		c0.744,0.326,1.51,0.531,2.324,0.287c0.219-0.064,0.439-0.156,0.631-0.281c0.866-0.558,1.033-1.508,0.279-2.206
		c-0.609-0.562-1.337-1.017-2.063-1.419c-1.297-0.715-2.633-1.348-3.784-2.304c-2.129-1.766-2.867-4.377-1.79-6.707
		c0.82-1.78,2.304-2.793,4.178-3.251C368.475,126.628,371.95,127.916,373.744,130.456z"/>
	<path fill-rule="evenodd" clip-rule="evenodd" fill="#FFFFFF" d="M15.556,141.242c22.978,3.294,45.958,6.588,68.939,9.884
		c0,0.026,0,0.052-0.002,0.076c-0.78,0.058-1.557,0.132-2.335,0.177c-1.738,0.098-3.477,0.176-5.21,0.268
		c-1.972,0.111-3.939,0.227-5.905,0.353c-1.649,0.104-3.294,0.303-4.943,0.312c-0.949,0.006-1.908-0.237-2.846-0.438
		c-3.645-0.79-7.285-1.603-10.928-2.411c-2.829-0.628-5.656-1.265-8.484-1.893c-3.207-0.709-6.419-1.408-9.627-2.117
		c-3.374-0.748-6.746-1.509-10.121-2.252c-2.692-0.594-5.382-1.177-8.076-1.767c-0.16-0.035-0.318-0.083-0.478-0.127
		C15.546,141.286,15.549,141.264,15.556,141.242z"/>
	<path fill-rule="evenodd" clip-rule="evenodd" fill="#FFFFFF" d="M180.077,119.948c1.659,0,3.273,0,4.918,0
		c0,9.21,0,18.408,0,27.635c-1.628,0-3.263,0-4.918,0C180.077,138.378,180.077,129.183,180.077,119.948z"/>
	<path fill-rule="evenodd" clip-rule="evenodd" fill="#FFFFFF" d="M176.089,147.595c-1.628,0-3.248,0-4.903,0
		c0-6.66,0-13.307,0-19.987c1.622,0,3.244,0,4.903,0C176.089,134.256,176.089,140.914,176.089,147.595z"/>
	<path fill-rule="evenodd" clip-rule="evenodd" fill="#F89D30" d="M275.067,135.318c0,1.545,0,3.064,0,4.607
		c-3.052,0-6.082,0-9.138,0c0-1.535,0-3.055,0-4.607C268.958,135.318,271.986,135.318,275.067,135.318z"/>
	<path fill-rule="evenodd" clip-rule="evenodd" fill="#FFFFFF" d="M173.692,125.931c-1.587,0.06-3.356-1.396-3.154-3.653
		c0.114-1.295,1.318-2.959,3.175-2.898c1.833,0.061,3.165,1.445,3.165,3.298C176.88,124.604,175.326,125.974,173.692,125.931z"/>
	<path fill-rule="evenodd" clip-rule="evenodd" fill="none" d="M85.951,118.839c-0.262,0.166-0.603,0.345-0.903,0.577
		c-1.583,1.223-1.68,2.68-0.423,4.283c1.072,1.375,2.507,2.311,3.963,3.216c2.464,1.536,4.948,3.045,7.406,4.594
		c2.175,1.374,4.333,2.781,6.487,4.189c0.771,0.503,1.443,1.123,1.925,1.918c0.154,0.257,0.275,0.54,0.352,0.828
		c0.16,0.584-0.031,1.042-0.588,1.271c-0.42,0.168-0.883,0.312-1.329,0.312c-4.466,0.022-8.93,0.026-13.392,0.011
		c-4.537-0.015-9.072-0.054-13.606-0.084c-4.304-0.028-8.604-0.058-12.908-0.088c-4.373-0.029-8.749-0.058-13.123-0.087
		c-4.639-0.03-9.276-0.059-13.913-0.086c-5.668-0.03-11.338-0.06-17.008-0.088c-0.081,0-0.16,0-0.254-0.075
		c1.106-0.377,2.211-0.763,3.321-1.132c9.52-3.19,19.036-6.386,28.563-9.56c6.767-2.258,13.545-4.495,20.328-6.715
		c2.944-0.965,5.903-1.908,8.883-2.764c1.106-0.318,2.292-0.407,3.449-0.506C84.108,118.775,85.057,118.839,85.951,118.839z
		 M22.812,138.785c0.025,0.042,0.03,0.063,0.036,0.063c2.911,0.04,5.801-0.243,8.693-0.508c2.127-0.195,4.253-0.384,6.378-0.571
		c2.127-0.188,4.254-0.368,6.379-0.558c2.113-0.188,4.222-0.389,6.336-0.576c1.807-0.161,3.618-0.304,5.426-0.465
		c2.443-0.218,4.887-0.451,7.331-0.667c2.459-0.218,4.92-0.418,7.379-0.636c2.457-0.218,4.916-0.447,7.374-0.673
		c2.53-0.234,5.059-0.45,7.587-0.716c0.849-0.089,1.695-0.278,2.422-0.778c0.589-0.403,0.739-0.954,0.327-1.536
		c-0.306-0.43-0.686-0.834-1.11-1.15c-2.102-1.564-4.412-2.738-6.93-3.466c-2.248-0.65-4.535-0.899-6.838-0.333
		c-7.205,1.763-14.407,3.542-21.609,5.323c-8.41,2.08-16.817,4.171-25.226,6.256C25.448,138.12,24.136,138.452,22.812,138.785z"/>
	<path fill-rule="evenodd" clip-rule="evenodd" fill="#F89D30" d="M22.812,138.785c1.324-0.333,2.637-0.665,3.954-0.992
		c8.408-2.085,16.815-4.176,25.226-6.256c7.202-1.781,14.404-3.56,21.609-5.323c2.303-0.565,4.59-0.317,6.838,0.333
		c2.518,0.728,4.828,1.902,6.93,3.466c0.424,0.315,0.805,0.72,1.11,1.15c0.412,0.582,0.262,1.132-0.327,1.536
		c-0.728,0.5-1.573,0.689-2.422,0.778c-2.528,0.266-5.057,0.482-7.587,0.716c-2.458,0.226-4.917,0.455-7.374,0.673
		c-2.459,0.218-4.92,0.418-7.379,0.636c-2.443,0.216-4.887,0.449-7.331,0.667c-1.808,0.161-3.619,0.305-5.426,0.465
		c-2.114,0.188-4.223,0.389-6.336,0.576c-2.125,0.189-4.252,0.37-6.379,0.558c-2.125,0.188-4.251,0.376-6.378,0.571
		c-2.892,0.265-5.782,0.548-8.693,0.508C22.842,138.848,22.837,138.827,22.812,138.785z"/>
</g>
</svg>
